<?xml version="1.0" encoding="utf-8"?>
<!-- Generator: Adobe Illustrator 18.0.0, SVG Export Plug-In . SVG Version: 6.00 Build 0)  -->
<!DOCTYPE svg PUBLIC "-//W3C//DTD SVG 1.1//EN" "http://www.w3.org/Graphics/SVG/1.1/DTD/svg11.dtd">
<svg version="1.1" id="Слой_1" xmlns="http://www.w3.org/2000/svg" xmlns:xlink="http://www.w3.org/1999/xlink" x="0px" y="0px"
	 viewBox="8 0 974 768" enable-background="new 8 0 974 768" xml:space="preserve">
<path fill="#ffffff"      d="
	M975.7,330.6l-226-227.4l-209.3-4.5l-11,3.9v-7.7v-22l-31.6-41.7l-18.6,11.8v3.8l3.6,2l-0.4,2.6l-2.7,0.6h-7.9v-3.1l2.1-1.6
	l-2.1-3.5v-4.2v-3.1V31l5.4-2.6l-1.9-5.2l-3-2.2l-9-2.6L229.4,8.6l-4,2.7L220.8,9h-3.5l-3.6,2l-2.5-2.4l-3.5-2.4c0,0-5.1,1.5-4.6,3
	s0,6.1,0,6.1l-4-0.5l-4.1-2.5l-6.6,3c0,0-1,3.5-2.5,3c-1.5-0.5-7.6-1-7.6-1s-3.5-1-3.5,0.5s-2,3-2,3l-4.1,0.5l-4.1,1.5l-6.6,4.1
	l-7.6-0.5l-3.5,5.6l-4.1,4.1l-5.6,3l-6.6-1l-2.5-0.5l-17.8,5.1l-6.2,2v7.3v5.2v5.2c0,0-2.2,4-3.7,3c-1.5-1-7.9-3.5-7.9-3.5v-4.7
	l4.8,0.6l4.2-1l0.6-6.1l-1.5-6.1l-5.6,1.5l-7.6,3l-14.2,4.1l-5.1,2l-4,5.1c0,0,0.5,3,0,4.6s-3,7.1-3,7.1L53.2,77L40.6,87.1l-7.1,6.6
	l-5.2,7.6l-3.7,3.5v8.9l-7.3,4.3v8.3v5.2l5.3,6.7l7.2,4.1l8.2,6.6c0,0,1,2,5.1,2.5c4,0.5,10.1-1,10.1-1l4.1,7.1l5.6,7.1l4.6,0.5
	l2.5,3.8l4.6,6.4l6.6,2.5l6.6,4.1l8.1-0.5l4.6-4.1l4.6,3.6l5.6,2h5.3l1.8-4.8l2.5-3.7l-0.5-8.2L117,158l5.1,3l5.6,7.7l4.6,2.9
	l-4.1,5.1c0,0,0,4-1.5,5.1s-4.1,0.5-4.1,0.5l-2.4,0.5c0,0-1.3,3.5-1.3,5.1c0,1.5,0,4.4,0,4.4l2.9,5.2l2.2-1L123,201l-1,7.6l1.5,3.5
	l2.5,2.5l4.1,7.6c0,0,1,2.5,1.5,4.1c0.5,1.5,5.1,7.6,5.1,7.6l0.5,5.1l3,8.6l3,6.6l3,5.1l6.6,4.6l3.4,7.1l3.4-2v-5.4l1.1-10.3
	l3.7,15.2l0.6,9.6l-3,0.5l1.5,6.1l4.6,2.5l1.5,6.6l2.5,4.1l0.5,5.6l2.5,4.6l3.5,2l4.1,0.5c0,0,3,1,3.5,2.5c0.5,1.5,2,4.1,2,4.1
	l4.1,1l3,5.1l3.5,2l3.5,3l7.1,3.3l4.6,4.4h2.1l-7.1-13.4l12.7,15.5h4.9l1.1,6.2l4.1,4l3.5,3.4h4.9l0.2,5.8l1.5,4.4l3.5,7l3.5,6.5
	c0,0,0,4-0.5,5.6s-0.5,7.4-0.5,7.4l6.6,3.8l4.1,4l6.6,3l7.1,4.1l6.8,2.5l8.3,7.6v7.4l4.9,3.7l6.2,4.6l2.1,3.5l-0.5,7.1l-0.5,5.1
	l-1.5,4.1l0.5,6.6l5.6,3c0,0,4.1,4.6,5.6,5.1c1.5,0.5,6.1,3.5,6.1,3.5l1.5,5.1c0,0,2.5,4.1,1,4.1s-2.5,2-2.5,2l4.1,4.6l11.1,6.1
	l1.5,5.1l3,9.1l8.6,7.1l12.2,3.5l8.6,5.6c0,0,5.6,6.1,7.1,6.6c1.5,0.5,6.6,0,6.6,0l3,6.6l3.5,3.5l2,6.1l-2,4.6c0,0,1.5,6.1,2,7.6
	s3.5,7.6,3.5,7.6l4.6,9.6l3,3l1.5,5.1l3,13.2l1,6.1l-2,7.1l-0.5,4.6l4.1,3.5l0.9,5.6l-2.7,4.6v7.3l6.1,4.9l10.4,5.6h6.5l5.6,8.3
	l4.6,3.9l3,3.5c0,0,1.5,3,3.5,5s0.5,7.1,1,8.6c0.5,1.5,1.5,5.1,2.5,6.6c0,0,3.5,3,3.5,4.6s0.5,7.6,0.5,7.6l5.1,5.1l1.5,5.1l3,7.1
	l-3,6.1l-1.5,7.6l1,5.6l3.5,5.1l0.5,4.6c0,0,0,4.1,1,5.6c1,1.5,3,5.6,3,5.6l5.6,3.4l5.1,3.4h6.3h4.2l5.7,4.1l10,6.4h5.2l-1.6-3.4
	l1-4.2l3.5-3.6l2.3-3.6l3.8-3.6c0,0,2-4.6,1-6.1s-4.8-5.1-4.8-5.1l-3.8-1.5l1-5.1l2.8-3.5l-3.8-4.6l7.6,4.6c0,0-0.5,5.1,1.5,5.6
	c2,0.5,6.6,0.5,6.6,0.5l3.5-5.6l4.1,4.6l-5.1,4c0,0-4.6,3.5-5.1,6.1c-0.5,2.5-1.5,7.1-1.5,7.1l7.1-0.5l6.1-3.5l6.6-6.1
	c0,0,4.1-4,5.6-6.6c1.5-2.5,4.6-8.1,4.6-8.1s0.5-3-1-3.5c-1.5-0.5-3-3.5-3-3.5l-2.5-3.5l-0.5-3l1-6.1l-0.5-4.1l-3.5-7.1
	c0,0,4.6-0.5,6.6-0.5s6.1-2.5,6.1-2.5l5.1-1l-1.5,7.1c0,0-5.6,0-3,5.1c2.5,5.1,4.6,9.1,4.6,9.1s5.6,1.5,7.1,1
	c1.5-0.5,9.1-3.5,9.1-3.5s1.5,2,3,2c1.5,0,9.6-5.1,9.6-5.1l6.1-6.1l3.5-6.1l3-8.6l-2.5-3.5c0,0-2.5-0.5-4.6,2.5s-2.5,2.5-5.1,7.1
	s-4.6,6.1-4.6,6.1l-3,1.5l-5.6,4.6l-4.6-2l-2.5-3.5l2.5-3.5l4-3l7.1-4.6l3-3.5l7.1-4.1c0,0,0.5-4-1-4.6s-4.6-3.5-6.1-2.5
	c-1.5,1-4.6,4.1-4.6,4.1l-1.5-3.5l5.6-5.1c0,0,4.1,2.5,3-1s-6.1-6.6-6.1-6.6s-1-3-3-2c-2,1-3.5,1-4.1,5.1c-0.5,4.1-1,7.1-1,7.1
	s-2,2.5-3.5,2c-1.5-0.5-3-2.5-3-2.5l-0.5-7.1l3-4l1.5-3.5c0,0-1-1.5-2.5-2.5c-0.8-0.5-1.7-1.1-2.7-1.5c-0.8-0.4-1.7-0.8-2.4-1
	c-1.5-0.5-4.1-2-4.1-2l-3.5-3.5l-3.5-5.1l-2-3c0,0,1-5.6,3.5-5.6s4-1,5.6,3c1.5,4.1,1,8.6,1,8.6l7.1,5.6l10.1,4.1l2.5,3.5
	c0,0,3,0.5,5.1,2s7.6,2.5,7.6,2.5l6.6-1.5l3,4.6l5.1,1.5c0,0,3-4.1,4.6-4.1s4.6-3.5,5.6-1.5s0.5,4,2,4s5.6-1.5,5.6-1.5l4.6-3.5
	l7.1-5.1c0,0,4.6-5.1,6.1-5.1c1.5,0,12.2-2.5,12.2-2.5s3-6.6,4.6-6.6s8.1-2.5,8.1-2.5s3-0.5,5.1-0.5c2,0,12.2-2,12.2-2l3-6.1
	l6.6-2.5l5.6-7.1l8.6-2.5l-7.1-4.1l-5.6,4.1l4.1-9.1l7.6,3l4.1-5.6l-4.1-4.6l-2-8.1l-6.6-8.6l-2.5-8.1l1-7.6l3-10.6l2-5.6l3-1.5
	l-1,9.1l-4.1,12.7l3,11.6l7.6,11.1l6.1,4c0,0,5.1-1.5,6.6-2.5c1.5-1,8.1-5.6,8.1-5.6l6.1-2.5l-2.5-5.6l-1-7.1l7.6-3
	c0,0,3.5,4.1,5.1,4.1s7.1-3.5,7.1-3.5l4.6-2l7.1-1.5l4.1-7.1l2.5-3l-4.1-1l-4.1,1.5l-3.5,4.5l-3.5,2h-5.5l6-7.3l5.6-5.7l3.5-10.9
	c0,0,3.5-5.4,5.1-5.4s5,0,5,0l5.7-3.8c0,0,5.6-5.7,6.1-4.2c0.5,1.5-0.5,6.5,1.5,8c2,1.5,5.6,2,5.6,2l6.1-1l5.1,2l5.6-2.5l4.1-3.5
	l-5.1-2.5l-5.6-0.5l-2.5-1.5l7.6-3.5c0,0,2-4,3.5-4s4.1-1.5,5.6-2c1.5-0.5,5.6-4.1,7.1-4.1s6.2-4.1,6.2-4.1l1.2-4.1V495l4,7.3
	l6.7-3.5c0,0,3.1-6.6,2.1-8.1c-0.5-0.7-1.3-2.6-2-4.3c-0.8-2-1.5-3.8-1.5-3.8l6.1,1c0,0-3.5-4-5.1-4.6c-1.5-0.5-5.1-4.1-7.6-4.1
	s-5.8-1.5-6.3-3c-0.5-1.5-3.8-4.6-3.8-6.1s0-7.5,0-7.5l5-5.2h2.3l-1.8,11l2.5,5.4l6.1,0.9l3,3.5l3.5,1.5l3,1.5l2-13.2l2-7.6
	l1.5-11.6c0,0,6.1-5.1,7.1-8.1c1-3,8.1-14.7,9.1-17.2c1-2.5,10.6-17.2,10.6-17.2l12.2-13.9l15.7-17.5l12.2-10.6l14.7-10.6l13.2-6.6
	l21.5-6.1l4.3-3V330.6z"/>
</svg>
